<mxfile host="Electron" modified="2023-04-18T06:13:16.504Z" agent="Mozilla/5.0 (Macintosh; Intel Mac OS X 10_13_6) AppleWebKit/537.36 (KHTML, like Gecko) draw.io/21.1.2 Chrome/106.0.5249.199 Electron/21.4.3 Safari/537.36" etag="Y-0VJEkN6FOA80uR_gZo" version="21.1.2" type="device">
  <diagram id="C5RBs43oDa-KdzZeNtuy" name="Page-1">
    <mxGraphModel dx="934" dy="1907" grid="1" gridSize="10" guides="1" tooltips="1" connect="1" arrows="1" fold="1" page="1" pageScale="1" pageWidth="827" pageHeight="1169" background="none" math="0" shadow="0">
      <root>
        <mxCell id="WIyWlLk6GJQsqaUBKTNV-0" />
        <mxCell id="WIyWlLk6GJQsqaUBKTNV-1" parent="WIyWlLk6GJQsqaUBKTNV-0" />
        <mxCell id="t9t_e2mH_Itqn5uGp0K4-7" style="edgeStyle=orthogonalEdgeStyle;rounded=0;orthogonalLoop=1;jettySize=auto;html=1;entryX=0.5;entryY=0;entryDx=0;entryDy=0;" edge="1" parent="WIyWlLk6GJQsqaUBKTNV-1" source="WIyWlLk6GJQsqaUBKTNV-3" target="WIyWlLk6GJQsqaUBKTNV-6">
          <mxGeometry relative="1" as="geometry" />
        </mxCell>
        <mxCell id="t9t_e2mH_Itqn5uGp0K4-12" style="edgeStyle=orthogonalEdgeStyle;rounded=0;orthogonalLoop=1;jettySize=auto;html=1;entryX=0.5;entryY=0;entryDx=0;entryDy=0;" edge="1" parent="WIyWlLk6GJQsqaUBKTNV-1" source="WIyWlLk6GJQsqaUBKTNV-3" target="t9t_e2mH_Itqn5uGp0K4-13">
          <mxGeometry relative="1" as="geometry">
            <mxPoint x="589.9300000000001" y="70" as="targetPoint" />
          </mxGeometry>
        </mxCell>
        <mxCell id="WIyWlLk6GJQsqaUBKTNV-3" value="Database on Excel" style="rounded=1;whiteSpace=wrap;html=1;fontSize=12;glass=0;strokeWidth=1;shadow=0;" parent="WIyWlLk6GJQsqaUBKTNV-1" vertex="1">
          <mxGeometry x="369.93" y="50" width="120" height="40" as="geometry" />
        </mxCell>
        <mxCell id="t9t_e2mH_Itqn5uGp0K4-17" style="edgeStyle=orthogonalEdgeStyle;rounded=0;orthogonalLoop=1;jettySize=auto;html=1;entryX=0.5;entryY=0;entryDx=0;entryDy=0;" edge="1" parent="WIyWlLk6GJQsqaUBKTNV-1" source="WIyWlLk6GJQsqaUBKTNV-6" target="WIyWlLk6GJQsqaUBKTNV-11">
          <mxGeometry relative="1" as="geometry" />
        </mxCell>
        <mxCell id="t9t_e2mH_Itqn5uGp0K4-22" value="yes" style="edgeLabel;html=1;align=center;verticalAlign=middle;resizable=0;points=[];" vertex="1" connectable="0" parent="t9t_e2mH_Itqn5uGp0K4-17">
          <mxGeometry x="-0.4167" relative="1" as="geometry">
            <mxPoint x="10" y="-7" as="offset" />
          </mxGeometry>
        </mxCell>
        <mxCell id="t9t_e2mH_Itqn5uGp0K4-31" style="edgeStyle=orthogonalEdgeStyle;rounded=0;orthogonalLoop=1;jettySize=auto;html=1;entryX=0.5;entryY=0;entryDx=0;entryDy=0;" edge="1" parent="WIyWlLk6GJQsqaUBKTNV-1" source="WIyWlLk6GJQsqaUBKTNV-6" target="t9t_e2mH_Itqn5uGp0K4-30">
          <mxGeometry relative="1" as="geometry" />
        </mxCell>
        <mxCell id="t9t_e2mH_Itqn5uGp0K4-32" value="No" style="edgeLabel;html=1;align=center;verticalAlign=middle;resizable=0;points=[];" vertex="1" connectable="0" parent="t9t_e2mH_Itqn5uGp0K4-31">
          <mxGeometry x="-0.8157" y="1" relative="1" as="geometry">
            <mxPoint x="9" y="-11" as="offset" />
          </mxGeometry>
        </mxCell>
        <mxCell id="WIyWlLk6GJQsqaUBKTNV-6" value="Update component?" style="rhombus;whiteSpace=wrap;html=1;shadow=0;fontFamily=Helvetica;fontSize=12;align=center;strokeWidth=1;spacing=6;spacingTop=-4;" parent="WIyWlLk6GJQsqaUBKTNV-1" vertex="1">
          <mxGeometry x="249.93" y="120" width="100" height="80" as="geometry" />
        </mxCell>
        <mxCell id="t9t_e2mH_Itqn5uGp0K4-33" style="edgeStyle=orthogonalEdgeStyle;rounded=0;orthogonalLoop=1;jettySize=auto;html=1;entryX=1;entryY=0.5;entryDx=0;entryDy=0;" edge="1" parent="WIyWlLk6GJQsqaUBKTNV-1" source="WIyWlLk6GJQsqaUBKTNV-11" target="t9t_e2mH_Itqn5uGp0K4-30">
          <mxGeometry relative="1" as="geometry">
            <Array as="points">
              <mxPoint x="300" y="330" />
            </Array>
          </mxGeometry>
        </mxCell>
        <mxCell id="WIyWlLk6GJQsqaUBKTNV-11" value="New quantity displayed on LCD" style="rounded=1;whiteSpace=wrap;html=1;fontSize=12;glass=0;strokeWidth=1;shadow=0;" parent="WIyWlLk6GJQsqaUBKTNV-1" vertex="1">
          <mxGeometry x="239.93" y="260" width="120" height="40" as="geometry" />
        </mxCell>
        <mxCell id="t9t_e2mH_Itqn5uGp0K4-6" style="edgeStyle=orthogonalEdgeStyle;rounded=0;orthogonalLoop=1;jettySize=auto;html=1;entryX=0.5;entryY=0;entryDx=0;entryDy=0;" edge="1" parent="WIyWlLk6GJQsqaUBKTNV-1" source="t9t_e2mH_Itqn5uGp0K4-0" target="WIyWlLk6GJQsqaUBKTNV-3">
          <mxGeometry relative="1" as="geometry" />
        </mxCell>
        <mxCell id="t9t_e2mH_Itqn5uGp0K4-0" value="START" style="ellipse;whiteSpace=wrap;html=1;" vertex="1" parent="WIyWlLk6GJQsqaUBKTNV-1">
          <mxGeometry x="369.93" y="-20" width="120" height="50" as="geometry" />
        </mxCell>
        <mxCell id="t9t_e2mH_Itqn5uGp0K4-18" style="edgeStyle=orthogonalEdgeStyle;rounded=0;orthogonalLoop=1;jettySize=auto;html=1;entryX=0.5;entryY=0;entryDx=0;entryDy=0;" edge="1" parent="WIyWlLk6GJQsqaUBKTNV-1" source="t9t_e2mH_Itqn5uGp0K4-13" target="t9t_e2mH_Itqn5uGp0K4-14">
          <mxGeometry relative="1" as="geometry" />
        </mxCell>
        <mxCell id="t9t_e2mH_Itqn5uGp0K4-23" value="Yes" style="edgeLabel;html=1;align=center;verticalAlign=middle;resizable=0;points=[];" vertex="1" connectable="0" parent="t9t_e2mH_Itqn5uGp0K4-18">
          <mxGeometry x="-0.5167" y="1" relative="1" as="geometry">
            <mxPoint x="9" as="offset" />
          </mxGeometry>
        </mxCell>
        <mxCell id="t9t_e2mH_Itqn5uGp0K4-13" value="Update Pick section?" style="rhombus;whiteSpace=wrap;html=1;shadow=0;fontFamily=Helvetica;fontSize=12;align=center;strokeWidth=1;spacing=6;spacingTop=-4;" vertex="1" parent="WIyWlLk6GJQsqaUBKTNV-1">
          <mxGeometry x="529.9300000000001" y="120" width="100" height="80" as="geometry" />
        </mxCell>
        <mxCell id="t9t_e2mH_Itqn5uGp0K4-20" style="edgeStyle=orthogonalEdgeStyle;rounded=0;orthogonalLoop=1;jettySize=auto;html=1;entryX=0.5;entryY=0;entryDx=0;entryDy=0;" edge="1" parent="WIyWlLk6GJQsqaUBKTNV-1" source="t9t_e2mH_Itqn5uGp0K4-14" target="t9t_e2mH_Itqn5uGp0K4-16">
          <mxGeometry relative="1" as="geometry" />
        </mxCell>
        <mxCell id="t9t_e2mH_Itqn5uGp0K4-14" value="LED turn on&lt;br&gt;LCD indicate quantity how much to pick" style="rounded=1;whiteSpace=wrap;html=1;fontSize=12;glass=0;strokeWidth=1;shadow=0;" vertex="1" parent="WIyWlLk6GJQsqaUBKTNV-1">
          <mxGeometry x="519.9300000000001" y="250" width="120" height="60" as="geometry" />
        </mxCell>
        <mxCell id="t9t_e2mH_Itqn5uGp0K4-29" style="edgeStyle=orthogonalEdgeStyle;rounded=0;orthogonalLoop=1;jettySize=auto;html=1;entryX=1;entryY=0.5;entryDx=0;entryDy=0;" edge="1" parent="WIyWlLk6GJQsqaUBKTNV-1" source="t9t_e2mH_Itqn5uGp0K4-15" target="WIyWlLk6GJQsqaUBKTNV-11">
          <mxGeometry relative="1" as="geometry" />
        </mxCell>
        <mxCell id="t9t_e2mH_Itqn5uGp0K4-15" value="LED turn off&lt;br&gt;Pick section on Excel to &#39;0&#39;&lt;br&gt;New update on quantity" style="rounded=1;whiteSpace=wrap;html=1;fontSize=12;glass=0;strokeWidth=1;shadow=0;" vertex="1" parent="WIyWlLk6GJQsqaUBKTNV-1">
          <mxGeometry x="499.88" y="470" width="160.1" height="70" as="geometry" />
        </mxCell>
        <mxCell id="t9t_e2mH_Itqn5uGp0K4-21" style="edgeStyle=orthogonalEdgeStyle;rounded=0;orthogonalLoop=1;jettySize=auto;html=1;entryX=0.5;entryY=0;entryDx=0;entryDy=0;" edge="1" parent="WIyWlLk6GJQsqaUBKTNV-1" source="t9t_e2mH_Itqn5uGp0K4-16" target="t9t_e2mH_Itqn5uGp0K4-15">
          <mxGeometry relative="1" as="geometry" />
        </mxCell>
        <mxCell id="t9t_e2mH_Itqn5uGp0K4-28" value="Yes" style="edgeLabel;html=1;align=center;verticalAlign=middle;resizable=0;points=[];" vertex="1" connectable="0" parent="t9t_e2mH_Itqn5uGp0K4-21">
          <mxGeometry x="0.1" y="-1" relative="1" as="geometry">
            <mxPoint x="9" y="-2" as="offset" />
          </mxGeometry>
        </mxCell>
        <mxCell id="t9t_e2mH_Itqn5uGp0K4-24" style="edgeStyle=orthogonalEdgeStyle;rounded=0;orthogonalLoop=1;jettySize=auto;html=1;entryX=1;entryY=0.5;entryDx=0;entryDy=0;" edge="1" parent="WIyWlLk6GJQsqaUBKTNV-1" source="t9t_e2mH_Itqn5uGp0K4-16" target="t9t_e2mH_Itqn5uGp0K4-14">
          <mxGeometry relative="1" as="geometry">
            <mxPoint x="709.9300000000001" y="280" as="targetPoint" />
            <Array as="points">
              <mxPoint x="679.9300000000001" y="390" />
              <mxPoint x="679.9300000000001" y="280" />
            </Array>
          </mxGeometry>
        </mxCell>
        <mxCell id="t9t_e2mH_Itqn5uGp0K4-27" value="No" style="edgeLabel;html=1;align=center;verticalAlign=middle;resizable=0;points=[];" vertex="1" connectable="0" parent="t9t_e2mH_Itqn5uGp0K4-24">
          <mxGeometry x="-0.685" y="1" relative="1" as="geometry">
            <mxPoint x="-22" y="-9" as="offset" />
          </mxGeometry>
        </mxCell>
        <mxCell id="t9t_e2mH_Itqn5uGp0K4-16" value="button clicked?" style="rhombus;whiteSpace=wrap;html=1;shadow=0;fontFamily=Helvetica;fontSize=12;align=center;strokeWidth=1;spacing=6;spacingTop=-4;" vertex="1" parent="WIyWlLk6GJQsqaUBKTNV-1">
          <mxGeometry x="529.9300000000001" y="350" width="100" height="80" as="geometry" />
        </mxCell>
        <mxCell id="t9t_e2mH_Itqn5uGp0K4-30" value="Show quantity on LCD" style="rounded=1;whiteSpace=wrap;html=1;fontSize=12;glass=0;strokeWidth=1;shadow=0;" vertex="1" parent="WIyWlLk6GJQsqaUBKTNV-1">
          <mxGeometry x="80" y="310" width="120" height="40" as="geometry" />
        </mxCell>
      </root>
    </mxGraphModel>
  </diagram>
</mxfile>
